<mxfile host="app.diagrams.net" modified="2021-08-24T19:06:12.088Z" agent="5.0 (Macintosh; Intel Mac OS X 10_15_7) AppleWebKit/605.1.15 (KHTML, like Gecko) Version/15.0 Safari/605.1.15" etag="k-gOeZ0V5tyaeXIR1NRF" version="14.9.8" type="github">
  <diagram id="C5RBs43oDa-KdzZeNtuy" name="Page-1">
    <mxGraphModel dx="1554" dy="994" grid="1" gridSize="10" guides="1" tooltips="1" connect="1" arrows="1" fold="1" page="1" pageScale="1" pageWidth="827" pageHeight="1169" math="0" shadow="0">
      <root>
        <mxCell id="WIyWlLk6GJQsqaUBKTNV-0" />
        <mxCell id="WIyWlLk6GJQsqaUBKTNV-1" parent="WIyWlLk6GJQsqaUBKTNV-0" />
        <mxCell id="OK6IVoRi-ZR82b24dtMk-136" style="edgeStyle=orthogonalEdgeStyle;rounded=0;orthogonalLoop=1;jettySize=auto;html=1;exitX=0.5;exitY=1;exitDx=0;exitDy=0;entryX=0.5;entryY=0;entryDx=0;entryDy=0;" edge="1" parent="WIyWlLk6GJQsqaUBKTNV-1" source="WIyWlLk6GJQsqaUBKTNV-3" target="dZfw9gdwl8cU3iEWF7_1-1">
          <mxGeometry relative="1" as="geometry" />
        </mxCell>
        <mxCell id="WIyWlLk6GJQsqaUBKTNV-3" value="Continuing from &amp;nbsp;arrest" style="rounded=1;whiteSpace=wrap;html=1;fontSize=12;glass=0;strokeWidth=1;shadow=0;" parent="WIyWlLk6GJQsqaUBKTNV-1" vertex="1">
          <mxGeometry x="360" width="120" height="40" as="geometry" />
        </mxCell>
        <mxCell id="OK6IVoRi-ZR82b24dtMk-137" style="edgeStyle=orthogonalEdgeStyle;rounded=0;orthogonalLoop=1;jettySize=auto;html=1;exitX=0.5;exitY=1;exitDx=0;exitDy=0;" edge="1" parent="WIyWlLk6GJQsqaUBKTNV-1" source="dZfw9gdwl8cU3iEWF7_1-1" target="OK6IVoRi-ZR82b24dtMk-0">
          <mxGeometry relative="1" as="geometry" />
        </mxCell>
        <mxCell id="dZfw9gdwl8cU3iEWF7_1-1" value="setting the scene&lt;br&gt;&amp;nbsp;&lt;br&gt;at the station" style="rounded=1;whiteSpace=wrap;html=1;" parent="WIyWlLk6GJQsqaUBKTNV-1" vertex="1">
          <mxGeometry x="360" y="80" width="120" height="40" as="geometry" />
        </mxCell>
        <mxCell id="OK6IVoRi-ZR82b24dtMk-139" style="edgeStyle=orthogonalEdgeStyle;rounded=0;orthogonalLoop=1;jettySize=auto;html=1;exitX=0.5;exitY=1;exitDx=0;exitDy=0;" edge="1" parent="WIyWlLk6GJQsqaUBKTNV-1" source="dZfw9gdwl8cU3iEWF7_1-9" target="OK6IVoRi-ZR82b24dtMk-1">
          <mxGeometry relative="1" as="geometry" />
        </mxCell>
        <mxCell id="dZfw9gdwl8cU3iEWF7_1-9" value="introduce CIA/FBI agents" style="rounded=1;whiteSpace=wrap;html=1;" parent="WIyWlLk6GJQsqaUBKTNV-1" vertex="1">
          <mxGeometry x="360" y="240" width="120" height="40" as="geometry" />
        </mxCell>
        <mxCell id="OK6IVoRi-ZR82b24dtMk-138" style="edgeStyle=orthogonalEdgeStyle;rounded=0;orthogonalLoop=1;jettySize=auto;html=1;exitX=0.5;exitY=1;exitDx=0;exitDy=0;" edge="1" parent="WIyWlLk6GJQsqaUBKTNV-1" source="OK6IVoRi-ZR82b24dtMk-0" target="dZfw9gdwl8cU3iEWF7_1-9">
          <mxGeometry relative="1" as="geometry" />
        </mxCell>
        <mxCell id="OK6IVoRi-ZR82b24dtMk-0" value="entering the interrogation" style="rounded=1;whiteSpace=wrap;html=1;" vertex="1" parent="WIyWlLk6GJQsqaUBKTNV-1">
          <mxGeometry x="360" y="160" width="120" height="40" as="geometry" />
        </mxCell>
        <mxCell id="OK6IVoRi-ZR82b24dtMk-140" style="edgeStyle=orthogonalEdgeStyle;rounded=0;orthogonalLoop=1;jettySize=auto;html=1;exitX=0.5;exitY=1;exitDx=0;exitDy=0;" edge="1" parent="WIyWlLk6GJQsqaUBKTNV-1" source="OK6IVoRi-ZR82b24dtMk-1" target="OK6IVoRi-ZR82b24dtMk-47">
          <mxGeometry relative="1" as="geometry" />
        </mxCell>
        <mxCell id="OK6IVoRi-ZR82b24dtMk-151" style="edgeStyle=orthogonalEdgeStyle;rounded=0;orthogonalLoop=1;jettySize=auto;html=1;exitX=0;exitY=0.5;exitDx=0;exitDy=0;" edge="1" parent="WIyWlLk6GJQsqaUBKTNV-1" source="OK6IVoRi-ZR82b24dtMk-1" target="OK6IVoRi-ZR82b24dtMk-106">
          <mxGeometry relative="1" as="geometry" />
        </mxCell>
        <mxCell id="OK6IVoRi-ZR82b24dtMk-171" style="edgeStyle=orthogonalEdgeStyle;rounded=0;orthogonalLoop=1;jettySize=auto;html=1;exitX=1;exitY=0.5;exitDx=0;exitDy=0;entryX=0;entryY=0.5;entryDx=0;entryDy=0;" edge="1" parent="WIyWlLk6GJQsqaUBKTNV-1" source="OK6IVoRi-ZR82b24dtMk-1" target="OK6IVoRi-ZR82b24dtMk-58">
          <mxGeometry relative="1" as="geometry" />
        </mxCell>
        <mxCell id="OK6IVoRi-ZR82b24dtMk-1" value="Question 1" style="rounded=1;whiteSpace=wrap;html=1;" vertex="1" parent="WIyWlLk6GJQsqaUBKTNV-1">
          <mxGeometry x="360" y="320" width="120" height="40" as="geometry" />
        </mxCell>
        <mxCell id="OK6IVoRi-ZR82b24dtMk-141" style="edgeStyle=orthogonalEdgeStyle;rounded=0;orthogonalLoop=1;jettySize=auto;html=1;exitX=0.5;exitY=1;exitDx=0;exitDy=0;" edge="1" parent="WIyWlLk6GJQsqaUBKTNV-1" source="OK6IVoRi-ZR82b24dtMk-47" target="OK6IVoRi-ZR82b24dtMk-48">
          <mxGeometry relative="1" as="geometry" />
        </mxCell>
        <mxCell id="OK6IVoRi-ZR82b24dtMk-152" style="edgeStyle=orthogonalEdgeStyle;rounded=0;orthogonalLoop=1;jettySize=auto;html=1;exitX=0;exitY=0.5;exitDx=0;exitDy=0;entryX=1;entryY=0.5;entryDx=0;entryDy=0;" edge="1" parent="WIyWlLk6GJQsqaUBKTNV-1" source="OK6IVoRi-ZR82b24dtMk-47" target="OK6IVoRi-ZR82b24dtMk-109">
          <mxGeometry relative="1" as="geometry" />
        </mxCell>
        <mxCell id="OK6IVoRi-ZR82b24dtMk-170" style="edgeStyle=orthogonalEdgeStyle;rounded=0;orthogonalLoop=1;jettySize=auto;html=1;exitX=1;exitY=0.5;exitDx=0;exitDy=0;entryX=0;entryY=0.5;entryDx=0;entryDy=0;" edge="1" parent="WIyWlLk6GJQsqaUBKTNV-1" source="OK6IVoRi-ZR82b24dtMk-47" target="OK6IVoRi-ZR82b24dtMk-65">
          <mxGeometry relative="1" as="geometry" />
        </mxCell>
        <mxCell id="OK6IVoRi-ZR82b24dtMk-47" value="Question 2" style="rounded=1;whiteSpace=wrap;html=1;" vertex="1" parent="WIyWlLk6GJQsqaUBKTNV-1">
          <mxGeometry x="360" y="400" width="120" height="40" as="geometry" />
        </mxCell>
        <mxCell id="OK6IVoRi-ZR82b24dtMk-142" style="edgeStyle=orthogonalEdgeStyle;rounded=0;orthogonalLoop=1;jettySize=auto;html=1;exitX=0.5;exitY=1;exitDx=0;exitDy=0;entryX=0.5;entryY=0;entryDx=0;entryDy=0;" edge="1" parent="WIyWlLk6GJQsqaUBKTNV-1" source="OK6IVoRi-ZR82b24dtMk-48" target="OK6IVoRi-ZR82b24dtMk-49">
          <mxGeometry relative="1" as="geometry" />
        </mxCell>
        <mxCell id="OK6IVoRi-ZR82b24dtMk-153" style="edgeStyle=orthogonalEdgeStyle;rounded=0;orthogonalLoop=1;jettySize=auto;html=1;exitX=0;exitY=0.5;exitDx=0;exitDy=0;entryX=1;entryY=0.5;entryDx=0;entryDy=0;" edge="1" parent="WIyWlLk6GJQsqaUBKTNV-1" source="OK6IVoRi-ZR82b24dtMk-48" target="OK6IVoRi-ZR82b24dtMk-112">
          <mxGeometry relative="1" as="geometry" />
        </mxCell>
        <mxCell id="OK6IVoRi-ZR82b24dtMk-169" style="edgeStyle=orthogonalEdgeStyle;rounded=0;orthogonalLoop=1;jettySize=auto;html=1;exitX=1;exitY=0.5;exitDx=0;exitDy=0;entryX=0;entryY=0.5;entryDx=0;entryDy=0;" edge="1" parent="WIyWlLk6GJQsqaUBKTNV-1" source="OK6IVoRi-ZR82b24dtMk-48" target="OK6IVoRi-ZR82b24dtMk-82">
          <mxGeometry relative="1" as="geometry" />
        </mxCell>
        <mxCell id="OK6IVoRi-ZR82b24dtMk-48" value="Question 3" style="rounded=1;whiteSpace=wrap;html=1;" vertex="1" parent="WIyWlLk6GJQsqaUBKTNV-1">
          <mxGeometry x="360" y="480" width="120" height="40" as="geometry" />
        </mxCell>
        <mxCell id="OK6IVoRi-ZR82b24dtMk-143" style="edgeStyle=orthogonalEdgeStyle;rounded=0;orthogonalLoop=1;jettySize=auto;html=1;exitX=0.5;exitY=1;exitDx=0;exitDy=0;entryX=0.5;entryY=0;entryDx=0;entryDy=0;" edge="1" parent="WIyWlLk6GJQsqaUBKTNV-1" source="OK6IVoRi-ZR82b24dtMk-49" target="OK6IVoRi-ZR82b24dtMk-50">
          <mxGeometry relative="1" as="geometry" />
        </mxCell>
        <mxCell id="OK6IVoRi-ZR82b24dtMk-154" style="edgeStyle=orthogonalEdgeStyle;rounded=0;orthogonalLoop=1;jettySize=auto;html=1;exitX=0;exitY=0.5;exitDx=0;exitDy=0;entryX=1;entryY=0.5;entryDx=0;entryDy=0;" edge="1" parent="WIyWlLk6GJQsqaUBKTNV-1" source="OK6IVoRi-ZR82b24dtMk-49" target="OK6IVoRi-ZR82b24dtMk-115">
          <mxGeometry relative="1" as="geometry" />
        </mxCell>
        <mxCell id="OK6IVoRi-ZR82b24dtMk-168" style="edgeStyle=orthogonalEdgeStyle;rounded=0;orthogonalLoop=1;jettySize=auto;html=1;exitX=1;exitY=0.5;exitDx=0;exitDy=0;entryX=0;entryY=0.5;entryDx=0;entryDy=0;" edge="1" parent="WIyWlLk6GJQsqaUBKTNV-1" source="OK6IVoRi-ZR82b24dtMk-49" target="OK6IVoRi-ZR82b24dtMk-85">
          <mxGeometry relative="1" as="geometry" />
        </mxCell>
        <mxCell id="OK6IVoRi-ZR82b24dtMk-49" value="Question 4" style="rounded=1;whiteSpace=wrap;html=1;" vertex="1" parent="WIyWlLk6GJQsqaUBKTNV-1">
          <mxGeometry x="360" y="560" width="120" height="40" as="geometry" />
        </mxCell>
        <mxCell id="OK6IVoRi-ZR82b24dtMk-144" style="edgeStyle=orthogonalEdgeStyle;rounded=0;orthogonalLoop=1;jettySize=auto;html=1;exitX=0.5;exitY=1;exitDx=0;exitDy=0;entryX=0.5;entryY=0;entryDx=0;entryDy=0;" edge="1" parent="WIyWlLk6GJQsqaUBKTNV-1" source="OK6IVoRi-ZR82b24dtMk-50" target="OK6IVoRi-ZR82b24dtMk-51">
          <mxGeometry relative="1" as="geometry" />
        </mxCell>
        <mxCell id="OK6IVoRi-ZR82b24dtMk-155" style="edgeStyle=orthogonalEdgeStyle;rounded=0;orthogonalLoop=1;jettySize=auto;html=1;exitX=0;exitY=0.5;exitDx=0;exitDy=0;entryX=1;entryY=0.5;entryDx=0;entryDy=0;" edge="1" parent="WIyWlLk6GJQsqaUBKTNV-1" source="OK6IVoRi-ZR82b24dtMk-50" target="OK6IVoRi-ZR82b24dtMk-118">
          <mxGeometry relative="1" as="geometry" />
        </mxCell>
        <mxCell id="OK6IVoRi-ZR82b24dtMk-167" style="edgeStyle=orthogonalEdgeStyle;rounded=0;orthogonalLoop=1;jettySize=auto;html=1;exitX=1;exitY=0.5;exitDx=0;exitDy=0;entryX=0;entryY=0.5;entryDx=0;entryDy=0;" edge="1" parent="WIyWlLk6GJQsqaUBKTNV-1" source="OK6IVoRi-ZR82b24dtMk-50" target="OK6IVoRi-ZR82b24dtMk-88">
          <mxGeometry relative="1" as="geometry" />
        </mxCell>
        <mxCell id="OK6IVoRi-ZR82b24dtMk-50" value="Question 5" style="rounded=1;whiteSpace=wrap;html=1;" vertex="1" parent="WIyWlLk6GJQsqaUBKTNV-1">
          <mxGeometry x="360" y="640" width="120" height="40" as="geometry" />
        </mxCell>
        <mxCell id="OK6IVoRi-ZR82b24dtMk-145" style="edgeStyle=orthogonalEdgeStyle;rounded=0;orthogonalLoop=1;jettySize=auto;html=1;exitX=0.5;exitY=1;exitDx=0;exitDy=0;entryX=0.5;entryY=0;entryDx=0;entryDy=0;" edge="1" parent="WIyWlLk6GJQsqaUBKTNV-1" source="OK6IVoRi-ZR82b24dtMk-51" target="OK6IVoRi-ZR82b24dtMk-52">
          <mxGeometry relative="1" as="geometry" />
        </mxCell>
        <mxCell id="OK6IVoRi-ZR82b24dtMk-156" style="edgeStyle=orthogonalEdgeStyle;rounded=0;orthogonalLoop=1;jettySize=auto;html=1;exitX=0;exitY=0.5;exitDx=0;exitDy=0;entryX=1;entryY=0.5;entryDx=0;entryDy=0;" edge="1" parent="WIyWlLk6GJQsqaUBKTNV-1" source="OK6IVoRi-ZR82b24dtMk-51" target="OK6IVoRi-ZR82b24dtMk-121">
          <mxGeometry relative="1" as="geometry" />
        </mxCell>
        <mxCell id="OK6IVoRi-ZR82b24dtMk-166" style="edgeStyle=orthogonalEdgeStyle;rounded=0;orthogonalLoop=1;jettySize=auto;html=1;exitX=1;exitY=0.5;exitDx=0;exitDy=0;entryX=0;entryY=0.5;entryDx=0;entryDy=0;" edge="1" parent="WIyWlLk6GJQsqaUBKTNV-1" source="OK6IVoRi-ZR82b24dtMk-51" target="OK6IVoRi-ZR82b24dtMk-91">
          <mxGeometry relative="1" as="geometry" />
        </mxCell>
        <mxCell id="OK6IVoRi-ZR82b24dtMk-51" value="Question 6" style="rounded=1;whiteSpace=wrap;html=1;" vertex="1" parent="WIyWlLk6GJQsqaUBKTNV-1">
          <mxGeometry x="360" y="720" width="120" height="40" as="geometry" />
        </mxCell>
        <mxCell id="OK6IVoRi-ZR82b24dtMk-146" style="edgeStyle=orthogonalEdgeStyle;rounded=0;orthogonalLoop=1;jettySize=auto;html=1;exitX=0.5;exitY=1;exitDx=0;exitDy=0;entryX=0.5;entryY=0;entryDx=0;entryDy=0;" edge="1" parent="WIyWlLk6GJQsqaUBKTNV-1" source="OK6IVoRi-ZR82b24dtMk-52" target="OK6IVoRi-ZR82b24dtMk-53">
          <mxGeometry relative="1" as="geometry" />
        </mxCell>
        <mxCell id="OK6IVoRi-ZR82b24dtMk-157" style="edgeStyle=orthogonalEdgeStyle;rounded=0;orthogonalLoop=1;jettySize=auto;html=1;exitX=0;exitY=0.5;exitDx=0;exitDy=0;entryX=1;entryY=0.5;entryDx=0;entryDy=0;" edge="1" parent="WIyWlLk6GJQsqaUBKTNV-1" source="OK6IVoRi-ZR82b24dtMk-52" target="OK6IVoRi-ZR82b24dtMk-124">
          <mxGeometry relative="1" as="geometry" />
        </mxCell>
        <mxCell id="OK6IVoRi-ZR82b24dtMk-165" style="edgeStyle=orthogonalEdgeStyle;rounded=0;orthogonalLoop=1;jettySize=auto;html=1;exitX=1;exitY=0.5;exitDx=0;exitDy=0;entryX=0;entryY=0.5;entryDx=0;entryDy=0;" edge="1" parent="WIyWlLk6GJQsqaUBKTNV-1" source="OK6IVoRi-ZR82b24dtMk-52" target="OK6IVoRi-ZR82b24dtMk-94">
          <mxGeometry relative="1" as="geometry" />
        </mxCell>
        <mxCell id="OK6IVoRi-ZR82b24dtMk-52" value="Question 7" style="rounded=1;whiteSpace=wrap;html=1;" vertex="1" parent="WIyWlLk6GJQsqaUBKTNV-1">
          <mxGeometry x="360" y="800" width="120" height="40" as="geometry" />
        </mxCell>
        <mxCell id="OK6IVoRi-ZR82b24dtMk-147" style="edgeStyle=orthogonalEdgeStyle;rounded=0;orthogonalLoop=1;jettySize=auto;html=1;exitX=0.5;exitY=1;exitDx=0;exitDy=0;entryX=0.5;entryY=0;entryDx=0;entryDy=0;" edge="1" parent="WIyWlLk6GJQsqaUBKTNV-1" source="OK6IVoRi-ZR82b24dtMk-53" target="OK6IVoRi-ZR82b24dtMk-54">
          <mxGeometry relative="1" as="geometry" />
        </mxCell>
        <mxCell id="OK6IVoRi-ZR82b24dtMk-158" style="edgeStyle=orthogonalEdgeStyle;rounded=0;orthogonalLoop=1;jettySize=auto;html=1;exitX=0;exitY=0.5;exitDx=0;exitDy=0;entryX=1;entryY=0.5;entryDx=0;entryDy=0;" edge="1" parent="WIyWlLk6GJQsqaUBKTNV-1" source="OK6IVoRi-ZR82b24dtMk-53" target="OK6IVoRi-ZR82b24dtMk-127">
          <mxGeometry relative="1" as="geometry" />
        </mxCell>
        <mxCell id="OK6IVoRi-ZR82b24dtMk-164" style="edgeStyle=orthogonalEdgeStyle;rounded=0;orthogonalLoop=1;jettySize=auto;html=1;exitX=1;exitY=0.5;exitDx=0;exitDy=0;entryX=0;entryY=0.5;entryDx=0;entryDy=0;" edge="1" parent="WIyWlLk6GJQsqaUBKTNV-1" source="OK6IVoRi-ZR82b24dtMk-53" target="OK6IVoRi-ZR82b24dtMk-97">
          <mxGeometry relative="1" as="geometry" />
        </mxCell>
        <mxCell id="OK6IVoRi-ZR82b24dtMk-53" value="Question 8" style="rounded=1;whiteSpace=wrap;html=1;" vertex="1" parent="WIyWlLk6GJQsqaUBKTNV-1">
          <mxGeometry x="360" y="880" width="120" height="40" as="geometry" />
        </mxCell>
        <mxCell id="OK6IVoRi-ZR82b24dtMk-148" style="edgeStyle=orthogonalEdgeStyle;rounded=0;orthogonalLoop=1;jettySize=auto;html=1;exitX=0.5;exitY=1;exitDx=0;exitDy=0;entryX=0.5;entryY=0;entryDx=0;entryDy=0;" edge="1" parent="WIyWlLk6GJQsqaUBKTNV-1" source="OK6IVoRi-ZR82b24dtMk-54" target="OK6IVoRi-ZR82b24dtMk-55">
          <mxGeometry relative="1" as="geometry" />
        </mxCell>
        <mxCell id="OK6IVoRi-ZR82b24dtMk-159" style="edgeStyle=orthogonalEdgeStyle;rounded=0;orthogonalLoop=1;jettySize=auto;html=1;exitX=0;exitY=0.5;exitDx=0;exitDy=0;entryX=1;entryY=0.5;entryDx=0;entryDy=0;" edge="1" parent="WIyWlLk6GJQsqaUBKTNV-1" source="OK6IVoRi-ZR82b24dtMk-54" target="OK6IVoRi-ZR82b24dtMk-130">
          <mxGeometry relative="1" as="geometry" />
        </mxCell>
        <mxCell id="OK6IVoRi-ZR82b24dtMk-163" style="edgeStyle=orthogonalEdgeStyle;rounded=0;orthogonalLoop=1;jettySize=auto;html=1;exitX=1;exitY=0.5;exitDx=0;exitDy=0;entryX=0;entryY=0.5;entryDx=0;entryDy=0;" edge="1" parent="WIyWlLk6GJQsqaUBKTNV-1" source="OK6IVoRi-ZR82b24dtMk-54" target="OK6IVoRi-ZR82b24dtMk-100">
          <mxGeometry relative="1" as="geometry" />
        </mxCell>
        <mxCell id="OK6IVoRi-ZR82b24dtMk-54" value="Question 9" style="rounded=1;whiteSpace=wrap;html=1;" vertex="1" parent="WIyWlLk6GJQsqaUBKTNV-1">
          <mxGeometry x="360" y="960" width="120" height="40" as="geometry" />
        </mxCell>
        <mxCell id="OK6IVoRi-ZR82b24dtMk-149" style="edgeStyle=orthogonalEdgeStyle;rounded=0;orthogonalLoop=1;jettySize=auto;html=1;exitX=0.5;exitY=1;exitDx=0;exitDy=0;" edge="1" parent="WIyWlLk6GJQsqaUBKTNV-1" source="OK6IVoRi-ZR82b24dtMk-55">
          <mxGeometry relative="1" as="geometry">
            <mxPoint x="420" y="1120" as="targetPoint" />
          </mxGeometry>
        </mxCell>
        <mxCell id="OK6IVoRi-ZR82b24dtMk-161" style="edgeStyle=orthogonalEdgeStyle;rounded=0;orthogonalLoop=1;jettySize=auto;html=1;exitX=0;exitY=0.5;exitDx=0;exitDy=0;entryX=1;entryY=0.5;entryDx=0;entryDy=0;" edge="1" parent="WIyWlLk6GJQsqaUBKTNV-1" source="OK6IVoRi-ZR82b24dtMk-55" target="OK6IVoRi-ZR82b24dtMk-133">
          <mxGeometry relative="1" as="geometry" />
        </mxCell>
        <mxCell id="OK6IVoRi-ZR82b24dtMk-162" style="edgeStyle=orthogonalEdgeStyle;rounded=0;orthogonalLoop=1;jettySize=auto;html=1;exitX=1;exitY=0.5;exitDx=0;exitDy=0;entryX=0;entryY=0.5;entryDx=0;entryDy=0;" edge="1" parent="WIyWlLk6GJQsqaUBKTNV-1" source="OK6IVoRi-ZR82b24dtMk-55" target="OK6IVoRi-ZR82b24dtMk-103">
          <mxGeometry relative="1" as="geometry" />
        </mxCell>
        <mxCell id="OK6IVoRi-ZR82b24dtMk-55" value="Question 10" style="rounded=1;whiteSpace=wrap;html=1;" vertex="1" parent="WIyWlLk6GJQsqaUBKTNV-1">
          <mxGeometry x="360" y="1040" width="120" height="40" as="geometry" />
        </mxCell>
        <mxCell id="OK6IVoRi-ZR82b24dtMk-58" value="impact 1" style="shape=hexagon;perimeter=hexagonPerimeter2;whiteSpace=wrap;html=1;fixedSize=1;fillColor=#CCFFFF;" vertex="1" parent="WIyWlLk6GJQsqaUBKTNV-1">
          <mxGeometry x="520" y="320" width="90" height="40" as="geometry" />
        </mxCell>
        <mxCell id="OK6IVoRi-ZR82b24dtMk-60" value="&lt;span&gt;impact 3&lt;/span&gt;" style="shape=hexagon;perimeter=hexagonPerimeter2;whiteSpace=wrap;html=1;fixedSize=1;fillColor=#E6D0DE;" vertex="1" parent="WIyWlLk6GJQsqaUBKTNV-1">
          <mxGeometry x="590" y="340" width="90" height="40" as="geometry" />
        </mxCell>
        <mxCell id="OK6IVoRi-ZR82b24dtMk-61" value="&lt;span&gt;impact 2&lt;/span&gt;" style="shape=hexagon;perimeter=hexagonPerimeter2;whiteSpace=wrap;html=1;fixedSize=1;fillColor=#D4E1F5;" vertex="1" parent="WIyWlLk6GJQsqaUBKTNV-1">
          <mxGeometry x="590" y="300" width="90" height="40" as="geometry" />
        </mxCell>
        <mxCell id="OK6IVoRi-ZR82b24dtMk-65" value="&lt;span&gt;impact 1&lt;/span&gt;" style="shape=hexagon;perimeter=hexagonPerimeter2;whiteSpace=wrap;html=1;fixedSize=1;fillColor=#CCFFFF;" vertex="1" parent="WIyWlLk6GJQsqaUBKTNV-1">
          <mxGeometry x="520" y="400" width="90" height="40" as="geometry" />
        </mxCell>
        <mxCell id="OK6IVoRi-ZR82b24dtMk-66" value="&lt;span&gt;impact 3&lt;/span&gt;" style="shape=hexagon;perimeter=hexagonPerimeter2;whiteSpace=wrap;html=1;fixedSize=1;fillColor=#E6D0DE;" vertex="1" parent="WIyWlLk6GJQsqaUBKTNV-1">
          <mxGeometry x="590" y="420" width="90" height="40" as="geometry" />
        </mxCell>
        <mxCell id="OK6IVoRi-ZR82b24dtMk-67" value="&lt;span&gt;impact 2&lt;/span&gt;" style="shape=hexagon;perimeter=hexagonPerimeter2;whiteSpace=wrap;html=1;fixedSize=1;fillColor=#D4E1F5;" vertex="1" parent="WIyWlLk6GJQsqaUBKTNV-1">
          <mxGeometry x="590" y="380" width="90" height="40" as="geometry" />
        </mxCell>
        <mxCell id="OK6IVoRi-ZR82b24dtMk-82" value="&lt;span&gt;impact 1&lt;/span&gt;" style="shape=hexagon;perimeter=hexagonPerimeter2;whiteSpace=wrap;html=1;fixedSize=1;fillColor=#D4E1F5;" vertex="1" parent="WIyWlLk6GJQsqaUBKTNV-1">
          <mxGeometry x="520" y="480" width="90" height="40" as="geometry" />
        </mxCell>
        <mxCell id="OK6IVoRi-ZR82b24dtMk-83" value="&lt;span&gt;impact 3&lt;/span&gt;" style="shape=hexagon;perimeter=hexagonPerimeter2;whiteSpace=wrap;html=1;fixedSize=1;fillColor=#E6D0DE;" vertex="1" parent="WIyWlLk6GJQsqaUBKTNV-1">
          <mxGeometry x="590" y="500" width="90" height="40" as="geometry" />
        </mxCell>
        <mxCell id="OK6IVoRi-ZR82b24dtMk-84" value="&lt;span&gt;impact 2&lt;/span&gt;" style="shape=hexagon;perimeter=hexagonPerimeter2;whiteSpace=wrap;html=1;fixedSize=1;fillColor=#CCFFFF;" vertex="1" parent="WIyWlLk6GJQsqaUBKTNV-1">
          <mxGeometry x="590" y="460" width="90" height="40" as="geometry" />
        </mxCell>
        <mxCell id="OK6IVoRi-ZR82b24dtMk-85" value="&lt;span&gt;impact 1&lt;/span&gt;" style="shape=hexagon;perimeter=hexagonPerimeter2;whiteSpace=wrap;html=1;fixedSize=1;fillColor=#D4E1F5;" vertex="1" parent="WIyWlLk6GJQsqaUBKTNV-1">
          <mxGeometry x="520" y="560" width="90" height="40" as="geometry" />
        </mxCell>
        <mxCell id="OK6IVoRi-ZR82b24dtMk-86" value="&lt;span&gt;impact 3&lt;/span&gt;" style="shape=hexagon;perimeter=hexagonPerimeter2;whiteSpace=wrap;html=1;fixedSize=1;fillColor=#E6D0DE;" vertex="1" parent="WIyWlLk6GJQsqaUBKTNV-1">
          <mxGeometry x="590" y="580" width="90" height="40" as="geometry" />
        </mxCell>
        <mxCell id="OK6IVoRi-ZR82b24dtMk-87" value="&lt;span&gt;impact 2&lt;/span&gt;" style="shape=hexagon;perimeter=hexagonPerimeter2;whiteSpace=wrap;html=1;fixedSize=1;fillColor=#CCFFFF;" vertex="1" parent="WIyWlLk6GJQsqaUBKTNV-1">
          <mxGeometry x="590" y="540" width="90" height="40" as="geometry" />
        </mxCell>
        <mxCell id="OK6IVoRi-ZR82b24dtMk-88" value="&lt;span&gt;impact 1&lt;/span&gt;" style="shape=hexagon;perimeter=hexagonPerimeter2;whiteSpace=wrap;html=1;fixedSize=1;fillColor=#D4E1F5;" vertex="1" parent="WIyWlLk6GJQsqaUBKTNV-1">
          <mxGeometry x="520" y="640" width="90" height="40" as="geometry" />
        </mxCell>
        <mxCell id="OK6IVoRi-ZR82b24dtMk-89" value="&lt;span&gt;impact 3&lt;/span&gt;" style="shape=hexagon;perimeter=hexagonPerimeter2;whiteSpace=wrap;html=1;fixedSize=1;fillColor=#E6D0DE;" vertex="1" parent="WIyWlLk6GJQsqaUBKTNV-1">
          <mxGeometry x="590" y="660" width="90" height="40" as="geometry" />
        </mxCell>
        <mxCell id="OK6IVoRi-ZR82b24dtMk-90" value="&lt;span&gt;impact 2&lt;/span&gt;" style="shape=hexagon;perimeter=hexagonPerimeter2;whiteSpace=wrap;html=1;fixedSize=1;fillColor=#CCFFFF;" vertex="1" parent="WIyWlLk6GJQsqaUBKTNV-1">
          <mxGeometry x="590" y="620" width="90" height="40" as="geometry" />
        </mxCell>
        <mxCell id="OK6IVoRi-ZR82b24dtMk-91" value="&lt;span&gt;impact 1&lt;/span&gt;" style="shape=hexagon;perimeter=hexagonPerimeter2;whiteSpace=wrap;html=1;fixedSize=1;fillColor=#CCFFFF;" vertex="1" parent="WIyWlLk6GJQsqaUBKTNV-1">
          <mxGeometry x="520" y="720" width="90" height="40" as="geometry" />
        </mxCell>
        <mxCell id="OK6IVoRi-ZR82b24dtMk-92" value="&lt;span&gt;impact 3&lt;/span&gt;" style="shape=hexagon;perimeter=hexagonPerimeter2;whiteSpace=wrap;html=1;fixedSize=1;fillColor=#D4E1F5;" vertex="1" parent="WIyWlLk6GJQsqaUBKTNV-1">
          <mxGeometry x="590" y="740" width="90" height="40" as="geometry" />
        </mxCell>
        <mxCell id="OK6IVoRi-ZR82b24dtMk-93" value="&lt;span&gt;impact 2&lt;/span&gt;" style="shape=hexagon;perimeter=hexagonPerimeter2;whiteSpace=wrap;html=1;fixedSize=1;fillColor=#D4E1F5;" vertex="1" parent="WIyWlLk6GJQsqaUBKTNV-1">
          <mxGeometry x="590" y="700" width="90" height="40" as="geometry" />
        </mxCell>
        <mxCell id="OK6IVoRi-ZR82b24dtMk-94" value="&lt;span&gt;impact 1&lt;/span&gt;" style="shape=hexagon;perimeter=hexagonPerimeter2;whiteSpace=wrap;html=1;fixedSize=1;fillColor=#D4E1F5;" vertex="1" parent="WIyWlLk6GJQsqaUBKTNV-1">
          <mxGeometry x="520" y="800" width="90" height="40" as="geometry" />
        </mxCell>
        <mxCell id="OK6IVoRi-ZR82b24dtMk-95" value="&lt;span&gt;impact 3&lt;/span&gt;" style="shape=hexagon;perimeter=hexagonPerimeter2;whiteSpace=wrap;html=1;fixedSize=1;fillColor=#E6D0DE;" vertex="1" parent="WIyWlLk6GJQsqaUBKTNV-1">
          <mxGeometry x="590" y="820" width="90" height="40" as="geometry" />
        </mxCell>
        <mxCell id="OK6IVoRi-ZR82b24dtMk-96" value="&lt;span&gt;impact 2&lt;/span&gt;" style="shape=hexagon;perimeter=hexagonPerimeter2;whiteSpace=wrap;html=1;fixedSize=1;fillColor=#CCFFFF;" vertex="1" parent="WIyWlLk6GJQsqaUBKTNV-1">
          <mxGeometry x="590" y="780" width="90" height="40" as="geometry" />
        </mxCell>
        <mxCell id="OK6IVoRi-ZR82b24dtMk-97" value="&lt;span&gt;impact 1&lt;/span&gt;" style="shape=hexagon;perimeter=hexagonPerimeter2;whiteSpace=wrap;html=1;fixedSize=1;fillColor=#D4E1F5;" vertex="1" parent="WIyWlLk6GJQsqaUBKTNV-1">
          <mxGeometry x="520" y="880" width="90" height="40" as="geometry" />
        </mxCell>
        <mxCell id="OK6IVoRi-ZR82b24dtMk-98" value="&lt;span&gt;impact 3&lt;/span&gt;" style="shape=hexagon;perimeter=hexagonPerimeter2;whiteSpace=wrap;html=1;fixedSize=1;fillColor=#D4E1F5;" vertex="1" parent="WIyWlLk6GJQsqaUBKTNV-1">
          <mxGeometry x="590" y="900" width="90" height="40" as="geometry" />
        </mxCell>
        <mxCell id="OK6IVoRi-ZR82b24dtMk-99" value="&lt;span&gt;impact 2&lt;/span&gt;" style="shape=hexagon;perimeter=hexagonPerimeter2;whiteSpace=wrap;html=1;fixedSize=1;fillColor=#CCFFFF;" vertex="1" parent="WIyWlLk6GJQsqaUBKTNV-1">
          <mxGeometry x="590" y="860" width="90" height="40" as="geometry" />
        </mxCell>
        <mxCell id="OK6IVoRi-ZR82b24dtMk-100" value="&lt;span&gt;impact 1&lt;/span&gt;" style="shape=hexagon;perimeter=hexagonPerimeter2;whiteSpace=wrap;html=1;fixedSize=1;fillColor=#E6D0DE;" vertex="1" parent="WIyWlLk6GJQsqaUBKTNV-1">
          <mxGeometry x="520" y="960" width="90" height="40" as="geometry" />
        </mxCell>
        <mxCell id="OK6IVoRi-ZR82b24dtMk-101" value="&lt;span&gt;impact 3&lt;/span&gt;" style="shape=hexagon;perimeter=hexagonPerimeter2;whiteSpace=wrap;html=1;fixedSize=1;fillColor=#CCFFFF;" vertex="1" parent="WIyWlLk6GJQsqaUBKTNV-1">
          <mxGeometry x="590" y="980" width="90" height="40" as="geometry" />
        </mxCell>
        <mxCell id="OK6IVoRi-ZR82b24dtMk-102" value="&lt;span&gt;impact 2&lt;/span&gt;" style="shape=hexagon;perimeter=hexagonPerimeter2;whiteSpace=wrap;html=1;fixedSize=1;fillColor=#CCFFFF;" vertex="1" parent="WIyWlLk6GJQsqaUBKTNV-1">
          <mxGeometry x="590" y="940" width="90" height="40" as="geometry" />
        </mxCell>
        <mxCell id="OK6IVoRi-ZR82b24dtMk-103" value="&lt;span&gt;impact 1&lt;/span&gt;" style="shape=hexagon;perimeter=hexagonPerimeter2;whiteSpace=wrap;html=1;fixedSize=1;fillColor=#CCFFFF;" vertex="1" parent="WIyWlLk6GJQsqaUBKTNV-1">
          <mxGeometry x="520" y="1040" width="90" height="40" as="geometry" />
        </mxCell>
        <mxCell id="OK6IVoRi-ZR82b24dtMk-104" value="&lt;span&gt;impact 3&lt;/span&gt;" style="shape=hexagon;perimeter=hexagonPerimeter2;whiteSpace=wrap;html=1;fixedSize=1;fillColor=#CCFFFF;" vertex="1" parent="WIyWlLk6GJQsqaUBKTNV-1">
          <mxGeometry x="590" y="1060" width="90" height="40" as="geometry" />
        </mxCell>
        <mxCell id="OK6IVoRi-ZR82b24dtMk-105" value="&lt;span&gt;impact 2&lt;/span&gt;" style="shape=hexagon;perimeter=hexagonPerimeter2;whiteSpace=wrap;html=1;fixedSize=1;fillColor=#E6D0DE;" vertex="1" parent="WIyWlLk6GJQsqaUBKTNV-1">
          <mxGeometry x="590" y="1020" width="90" height="40" as="geometry" />
        </mxCell>
        <mxCell id="OK6IVoRi-ZR82b24dtMk-106" value="answer 1" style="shape=hexagon;perimeter=hexagonPerimeter2;whiteSpace=wrap;html=1;fixedSize=1;" vertex="1" parent="WIyWlLk6GJQsqaUBKTNV-1">
          <mxGeometry x="230" y="320" width="90" height="40" as="geometry" />
        </mxCell>
        <mxCell id="OK6IVoRi-ZR82b24dtMk-107" value="answer 3" style="shape=hexagon;perimeter=hexagonPerimeter2;whiteSpace=wrap;html=1;fixedSize=1;" vertex="1" parent="WIyWlLk6GJQsqaUBKTNV-1">
          <mxGeometry x="160" y="340" width="90" height="40" as="geometry" />
        </mxCell>
        <mxCell id="OK6IVoRi-ZR82b24dtMk-108" value="answer 2" style="shape=hexagon;perimeter=hexagonPerimeter2;whiteSpace=wrap;html=1;fixedSize=1;" vertex="1" parent="WIyWlLk6GJQsqaUBKTNV-1">
          <mxGeometry x="160" y="300" width="90" height="40" as="geometry" />
        </mxCell>
        <mxCell id="OK6IVoRi-ZR82b24dtMk-109" value="&lt;span&gt;answer 1&lt;/span&gt;" style="shape=hexagon;perimeter=hexagonPerimeter2;whiteSpace=wrap;html=1;fixedSize=1;" vertex="1" parent="WIyWlLk6GJQsqaUBKTNV-1">
          <mxGeometry x="230" y="400" width="90" height="40" as="geometry" />
        </mxCell>
        <mxCell id="OK6IVoRi-ZR82b24dtMk-110" value="&lt;span&gt;answer 3&lt;/span&gt;" style="shape=hexagon;perimeter=hexagonPerimeter2;whiteSpace=wrap;html=1;fixedSize=1;" vertex="1" parent="WIyWlLk6GJQsqaUBKTNV-1">
          <mxGeometry x="160" y="420" width="90" height="40" as="geometry" />
        </mxCell>
        <mxCell id="OK6IVoRi-ZR82b24dtMk-111" value="&lt;span&gt;answer 2&lt;/span&gt;" style="shape=hexagon;perimeter=hexagonPerimeter2;whiteSpace=wrap;html=1;fixedSize=1;" vertex="1" parent="WIyWlLk6GJQsqaUBKTNV-1">
          <mxGeometry x="160" y="380" width="90" height="40" as="geometry" />
        </mxCell>
        <mxCell id="OK6IVoRi-ZR82b24dtMk-112" value="&lt;span&gt;answer 1&lt;/span&gt;" style="shape=hexagon;perimeter=hexagonPerimeter2;whiteSpace=wrap;html=1;fixedSize=1;" vertex="1" parent="WIyWlLk6GJQsqaUBKTNV-1">
          <mxGeometry x="230" y="480" width="90" height="40" as="geometry" />
        </mxCell>
        <mxCell id="OK6IVoRi-ZR82b24dtMk-113" value="answer 3" style="shape=hexagon;perimeter=hexagonPerimeter2;whiteSpace=wrap;html=1;fixedSize=1;" vertex="1" parent="WIyWlLk6GJQsqaUBKTNV-1">
          <mxGeometry x="160" y="500" width="90" height="40" as="geometry" />
        </mxCell>
        <mxCell id="OK6IVoRi-ZR82b24dtMk-114" value="&lt;span&gt;answer 2&lt;/span&gt;" style="shape=hexagon;perimeter=hexagonPerimeter2;whiteSpace=wrap;html=1;fixedSize=1;" vertex="1" parent="WIyWlLk6GJQsqaUBKTNV-1">
          <mxGeometry x="160" y="460" width="90" height="40" as="geometry" />
        </mxCell>
        <mxCell id="OK6IVoRi-ZR82b24dtMk-115" value="&lt;span&gt;answer 1&lt;/span&gt;" style="shape=hexagon;perimeter=hexagonPerimeter2;whiteSpace=wrap;html=1;fixedSize=1;" vertex="1" parent="WIyWlLk6GJQsqaUBKTNV-1">
          <mxGeometry x="230" y="560" width="90" height="40" as="geometry" />
        </mxCell>
        <mxCell id="OK6IVoRi-ZR82b24dtMk-116" value="&lt;span&gt;answer 3&lt;/span&gt;" style="shape=hexagon;perimeter=hexagonPerimeter2;whiteSpace=wrap;html=1;fixedSize=1;" vertex="1" parent="WIyWlLk6GJQsqaUBKTNV-1">
          <mxGeometry x="160" y="580" width="90" height="40" as="geometry" />
        </mxCell>
        <mxCell id="OK6IVoRi-ZR82b24dtMk-117" value="&lt;span&gt;answer 2&lt;/span&gt;" style="shape=hexagon;perimeter=hexagonPerimeter2;whiteSpace=wrap;html=1;fixedSize=1;" vertex="1" parent="WIyWlLk6GJQsqaUBKTNV-1">
          <mxGeometry x="160" y="540" width="90" height="40" as="geometry" />
        </mxCell>
        <mxCell id="OK6IVoRi-ZR82b24dtMk-118" value="&lt;span&gt;answer 1&lt;/span&gt;" style="shape=hexagon;perimeter=hexagonPerimeter2;whiteSpace=wrap;html=1;fixedSize=1;" vertex="1" parent="WIyWlLk6GJQsqaUBKTNV-1">
          <mxGeometry x="230" y="640" width="90" height="40" as="geometry" />
        </mxCell>
        <mxCell id="OK6IVoRi-ZR82b24dtMk-119" value="&lt;span&gt;answer 3&lt;/span&gt;" style="shape=hexagon;perimeter=hexagonPerimeter2;whiteSpace=wrap;html=1;fixedSize=1;" vertex="1" parent="WIyWlLk6GJQsqaUBKTNV-1">
          <mxGeometry x="160" y="660" width="90" height="40" as="geometry" />
        </mxCell>
        <mxCell id="OK6IVoRi-ZR82b24dtMk-120" value="&lt;span&gt;answer 2&lt;/span&gt;" style="shape=hexagon;perimeter=hexagonPerimeter2;whiteSpace=wrap;html=1;fixedSize=1;" vertex="1" parent="WIyWlLk6GJQsqaUBKTNV-1">
          <mxGeometry x="160" y="620" width="90" height="40" as="geometry" />
        </mxCell>
        <mxCell id="OK6IVoRi-ZR82b24dtMk-121" value="&lt;span&gt;answer 1&lt;/span&gt;" style="shape=hexagon;perimeter=hexagonPerimeter2;whiteSpace=wrap;html=1;fixedSize=1;" vertex="1" parent="WIyWlLk6GJQsqaUBKTNV-1">
          <mxGeometry x="230" y="720" width="90" height="40" as="geometry" />
        </mxCell>
        <mxCell id="OK6IVoRi-ZR82b24dtMk-122" value="&lt;span&gt;answer 3&lt;/span&gt;" style="shape=hexagon;perimeter=hexagonPerimeter2;whiteSpace=wrap;html=1;fixedSize=1;" vertex="1" parent="WIyWlLk6GJQsqaUBKTNV-1">
          <mxGeometry x="160" y="740" width="90" height="40" as="geometry" />
        </mxCell>
        <mxCell id="OK6IVoRi-ZR82b24dtMk-123" value="&lt;span&gt;answer 2&lt;/span&gt;" style="shape=hexagon;perimeter=hexagonPerimeter2;whiteSpace=wrap;html=1;fixedSize=1;" vertex="1" parent="WIyWlLk6GJQsqaUBKTNV-1">
          <mxGeometry x="160" y="700" width="90" height="40" as="geometry" />
        </mxCell>
        <mxCell id="OK6IVoRi-ZR82b24dtMk-124" value="&lt;span&gt;answer 1&lt;/span&gt;" style="shape=hexagon;perimeter=hexagonPerimeter2;whiteSpace=wrap;html=1;fixedSize=1;" vertex="1" parent="WIyWlLk6GJQsqaUBKTNV-1">
          <mxGeometry x="230" y="800" width="90" height="40" as="geometry" />
        </mxCell>
        <mxCell id="OK6IVoRi-ZR82b24dtMk-125" value="&lt;span&gt;answer 3&lt;/span&gt;" style="shape=hexagon;perimeter=hexagonPerimeter2;whiteSpace=wrap;html=1;fixedSize=1;" vertex="1" parent="WIyWlLk6GJQsqaUBKTNV-1">
          <mxGeometry x="160" y="820" width="90" height="40" as="geometry" />
        </mxCell>
        <mxCell id="OK6IVoRi-ZR82b24dtMk-126" value="&lt;span&gt;answer 2&lt;/span&gt;" style="shape=hexagon;perimeter=hexagonPerimeter2;whiteSpace=wrap;html=1;fixedSize=1;" vertex="1" parent="WIyWlLk6GJQsqaUBKTNV-1">
          <mxGeometry x="160" y="780" width="90" height="40" as="geometry" />
        </mxCell>
        <mxCell id="OK6IVoRi-ZR82b24dtMk-127" value="&lt;span&gt;answer 1&lt;/span&gt;" style="shape=hexagon;perimeter=hexagonPerimeter2;whiteSpace=wrap;html=1;fixedSize=1;" vertex="1" parent="WIyWlLk6GJQsqaUBKTNV-1">
          <mxGeometry x="230" y="880" width="90" height="40" as="geometry" />
        </mxCell>
        <mxCell id="OK6IVoRi-ZR82b24dtMk-128" value="&lt;span&gt;answer 3&lt;/span&gt;" style="shape=hexagon;perimeter=hexagonPerimeter2;whiteSpace=wrap;html=1;fixedSize=1;" vertex="1" parent="WIyWlLk6GJQsqaUBKTNV-1">
          <mxGeometry x="160" y="900" width="90" height="40" as="geometry" />
        </mxCell>
        <mxCell id="OK6IVoRi-ZR82b24dtMk-129" value="&lt;span&gt;answer 2&lt;/span&gt;" style="shape=hexagon;perimeter=hexagonPerimeter2;whiteSpace=wrap;html=1;fixedSize=1;" vertex="1" parent="WIyWlLk6GJQsqaUBKTNV-1">
          <mxGeometry x="160" y="860" width="90" height="40" as="geometry" />
        </mxCell>
        <mxCell id="OK6IVoRi-ZR82b24dtMk-130" value="&lt;span&gt;answer 1&lt;/span&gt;" style="shape=hexagon;perimeter=hexagonPerimeter2;whiteSpace=wrap;html=1;fixedSize=1;" vertex="1" parent="WIyWlLk6GJQsqaUBKTNV-1">
          <mxGeometry x="230" y="960" width="90" height="40" as="geometry" />
        </mxCell>
        <mxCell id="OK6IVoRi-ZR82b24dtMk-131" value="&lt;span&gt;answer 3&lt;/span&gt;" style="shape=hexagon;perimeter=hexagonPerimeter2;whiteSpace=wrap;html=1;fixedSize=1;" vertex="1" parent="WIyWlLk6GJQsqaUBKTNV-1">
          <mxGeometry x="160" y="980" width="90" height="40" as="geometry" />
        </mxCell>
        <mxCell id="OK6IVoRi-ZR82b24dtMk-132" value="&lt;span&gt;answer 2&lt;/span&gt;" style="shape=hexagon;perimeter=hexagonPerimeter2;whiteSpace=wrap;html=1;fixedSize=1;" vertex="1" parent="WIyWlLk6GJQsqaUBKTNV-1">
          <mxGeometry x="160" y="940" width="90" height="40" as="geometry" />
        </mxCell>
        <mxCell id="OK6IVoRi-ZR82b24dtMk-133" value="&lt;span&gt;answer 1&lt;/span&gt;" style="shape=hexagon;perimeter=hexagonPerimeter2;whiteSpace=wrap;html=1;fixedSize=1;" vertex="1" parent="WIyWlLk6GJQsqaUBKTNV-1">
          <mxGeometry x="230" y="1040" width="90" height="40" as="geometry" />
        </mxCell>
        <mxCell id="OK6IVoRi-ZR82b24dtMk-134" value="&lt;span&gt;answer 3&lt;/span&gt;" style="shape=hexagon;perimeter=hexagonPerimeter2;whiteSpace=wrap;html=1;fixedSize=1;" vertex="1" parent="WIyWlLk6GJQsqaUBKTNV-1">
          <mxGeometry x="160" y="1060" width="90" height="40" as="geometry" />
        </mxCell>
        <mxCell id="OK6IVoRi-ZR82b24dtMk-135" value="&lt;span&gt;answer 2&lt;/span&gt;" style="shape=hexagon;perimeter=hexagonPerimeter2;whiteSpace=wrap;html=1;fixedSize=1;" vertex="1" parent="WIyWlLk6GJQsqaUBKTNV-1">
          <mxGeometry x="160" y="1020" width="90" height="40" as="geometry" />
        </mxCell>
        <mxCell id="OK6IVoRi-ZR82b24dtMk-177" value="&lt;span&gt;Ending 1 &lt;br&gt;8/10&lt;/span&gt;" style="rhombus;whiteSpace=wrap;html=1;fillColor=#E6D0DE;" vertex="1" parent="WIyWlLk6GJQsqaUBKTNV-1">
          <mxGeometry x="380" y="1120" width="80" height="40" as="geometry" />
        </mxCell>
        <mxCell id="OK6IVoRi-ZR82b24dtMk-178" value="Ending 3 10/30" style="rhombus;whiteSpace=wrap;html=1;fillColor=#D4E1F5;" vertex="1" parent="WIyWlLk6GJQsqaUBKTNV-1">
          <mxGeometry x="420" y="1100" width="80" height="40" as="geometry" />
        </mxCell>
        <mxCell id="OK6IVoRi-ZR82b24dtMk-179" value="Ending 2 12/30" style="rhombus;whiteSpace=wrap;html=1;fillColor=#CCFFFF;" vertex="1" parent="WIyWlLk6GJQsqaUBKTNV-1">
          <mxGeometry x="340" y="1100" width="80" height="40" as="geometry" />
        </mxCell>
        <mxCell id="OK6IVoRi-ZR82b24dtMk-184" value="Expose Conspiracy" style="shape=hexagon;perimeter=hexagonPerimeter2;whiteSpace=wrap;html=1;fixedSize=1;fillColor=#CCFFFF;" vertex="1" parent="WIyWlLk6GJQsqaUBKTNV-1">
          <mxGeometry x="600" y="170" width="90" height="40" as="geometry" />
        </mxCell>
        <mxCell id="OK6IVoRi-ZR82b24dtMk-185" value="No evidence" style="shape=hexagon;perimeter=hexagonPerimeter2;whiteSpace=wrap;html=1;fixedSize=1;fillColor=#E6D0DE;" vertex="1" parent="WIyWlLk6GJQsqaUBKTNV-1">
          <mxGeometry x="670" y="190" width="90" height="40" as="geometry" />
        </mxCell>
        <mxCell id="OK6IVoRi-ZR82b24dtMk-186" value="Guiilty" style="shape=hexagon;perimeter=hexagonPerimeter2;whiteSpace=wrap;html=1;fixedSize=1;fillColor=#D4E1F5;" vertex="1" parent="WIyWlLk6GJQsqaUBKTNV-1">
          <mxGeometry x="670" y="150" width="90" height="40" as="geometry" />
        </mxCell>
      </root>
    </mxGraphModel>
  </diagram>
</mxfile>
